<svg version="1.1" id="Layer_1" xmlns="http://www.w3.org/2000/svg" xmlns:xlink="http://www.w3.org/1999/xlink" x="0px" y="0px"
	 width="100%" viewBox="0 0 240 300" enable-background="new 0 0 240 300" xml:space="preserve">
<path fill="#00000000" opacity="1.000000" stroke="none"
	d="
M241.000000,140.000000
	C241.000000,193.975235 241.000000,247.450455 241.000000,300.962830
	C161.061829,300.962830 81.123650,300.962830 1.092730,300.962830
	C1.092730,201.108200 1.092730,101.216293 1.092730,1.162190
	C80.999741,1.162190 160.999832,1.162190 241.000000,1.162190
	C241.000000,47.209503 241.000000,93.354752 241.000000,140.000000
M230.998764,243.500000
	C230.998764,174.086136 230.998764,104.672279 230.998764,34.856346
	C221.080246,34.856346 211.779419,35.003235 202.487762,34.775795
	C199.283188,34.697353 197.841919,35.855736 196.640579,38.715519
	C193.355286,46.536087 189.589493,54.154366 186.279419,61.965233
	C185.189331,64.537582 183.779037,65.353287 181.056168,65.347923
	C141.071945,65.269127 101.087448,65.265518 61.103283,65.356606
	C58.347408,65.362892 56.974514,64.503685 55.893463,61.974503
	C52.493469,54.020016 48.880287,46.154099 45.196819,38.325798
	C44.572029,36.997963 43.215412,35.063618 42.157436,35.037979
	C31.905493,34.789509 21.645123,34.888763 11.284832,34.888763
	C11.284832,122.565964 11.284832,209.604553 11.284832,296.696838
	C84.606018,296.696838 157.643143,296.696838 230.998764,296.696838
	C230.998764,279.097748 230.998764,261.798859 230.998764,243.500000
M58.922073,25.602139
	C61.825733,31.956963 64.583878,38.385700 67.745255,44.609615
	C68.450394,45.997841 70.568130,47.531498 72.042915,47.538990
	C104.683952,47.704792 137.326080,47.682259 169.967758,47.602310
	C171.267426,47.599129 173.309799,47.038330 173.747803,46.130344
	C178.037277,37.238186 182.059143,28.216940 186.475845,18.533487
	C179.542404,18.533487 173.499802,17.900866 167.643951,18.677155
	C158.122070,19.939442 151.235901,17.039408 147.009247,8.311890
	C145.665939,5.538105 143.466721,4.899486 140.492447,4.933083
	C127.503975,5.079797 114.510139,4.863441 101.525566,5.132024
	C99.460587,5.174737 96.436836,6.485194 95.553925,8.124074
	C90.763512,17.016146 83.723305,20.016600 73.869804,18.676556
	C68.100616,17.891964 62.137482,18.533516 55.738750,18.533516
	C56.977772,21.284290 57.795307,23.099308 58.922073,25.602139
z"/>
<path fill="#1C6EC1" opacity="1.000000" stroke="none"
	d="
M230.998764,244.000000
	C230.998764,261.798859 230.998764,279.097748 230.998764,296.696838
	C157.643143,296.696838 84.606018,296.696838 11.284832,296.696838
	C11.284832,209.604553 11.284832,122.565964 11.284832,34.888763
	C21.645123,34.888763 31.905493,34.789509 42.157436,35.037979
	C43.215412,35.063618 44.572029,36.997963 45.196819,38.325798
	C48.880287,46.154099 52.493469,54.020016 55.893463,61.974503
	C56.974514,64.503685 58.347408,65.362892 61.103283,65.356606
	C101.087448,65.265518 141.071945,65.269127 181.056168,65.347923
	C183.779037,65.353287 185.189331,64.537582 186.279419,61.965233
	C189.589493,54.154366 193.355286,46.536087 196.640579,38.715519
	C197.841919,35.855736 199.283188,34.697353 202.487762,34.775795
	C211.779419,35.003235 221.080246,34.856346 230.998764,34.856346
	C230.998764,104.672279 230.998764,174.086136 230.998764,244.000000
M117.149918,168.500000
	C117.149162,157.840042 117.044640,147.178543 117.202545,136.520935
	C117.259750,132.660202 115.735107,130.975601 111.941002,131.065842
	C108.778130,131.141068 105.611824,131.057739 102.447350,131.083328
	C96.463264,131.131729 95.911278,131.673721 95.906456,137.679214
	C95.891487,156.334229 96.142166,174.994858 95.714600,193.640106
	C95.615067,197.980499 94.546036,203.931381 91.629280,206.227737
	C85.910660,210.730026 78.219284,209.966263 71.616280,207.236908
	C66.538109,205.137863 66.874313,199.727493 66.870125,195.027802
	C66.852890,175.706543 66.794212,156.384918 66.901772,137.064285
	C66.925293,132.839890 65.366631,130.859573 61.041996,131.048904
	C57.550846,131.201736 54.045975,131.150421 50.550381,131.062637
	C46.837299,130.969406 45.032562,132.514145 45.047279,136.387405
	C45.127022,157.373932 44.679031,178.373444 45.287277,199.343124
	C45.695599,213.420395 51.794117,225.932404 69.981544,228.113907
	C76.057304,228.842667 82.249420,229.141220 88.362206,228.918533
	C105.580307,228.291306 116.553467,217.160141 117.011337,199.978806
	C117.281914,189.825180 117.118454,179.659988 117.149918,168.500000
M132.985184,155.500031
	C132.985458,177.305573 133.109543,199.112366 132.890930,220.915726
	C132.841919,225.805206 134.517654,227.593460 139.258865,227.165558
	C142.065704,226.912216 144.914200,227.129684 147.743866,227.118240
	C154.366516,227.091461 154.812943,226.651016 154.824066,219.982162
	C154.838135,211.548508 154.827454,203.114838 154.827454,194.817322
	C163.307327,193.282715 163.285767,193.293655 166.636246,199.895950
	C170.701996,207.907761 174.699310,215.958405 178.996994,223.844696
	C179.786911,225.294189 181.808884,226.851654 183.362793,226.963654
	C188.661469,227.345612 194.006729,227.183792 199.330933,227.072281
	C202.794434,226.999756 203.631393,225.001480 202.420975,222.006897
	C201.799454,220.469254 200.953140,219.021774 200.197372,217.539169
	C195.457840,208.241333 190.715225,198.945068 186.004562,189.708939
	C198.624710,180.480087 200.309509,171.149704 199.794830,159.217209
	C199.118805,143.543961 191.828995,133.138916 178.201584,131.682129
	C164.373566,130.203918 150.291611,130.983917 136.324966,131.140640
	C135.197586,131.153290 133.237503,133.945374 133.143784,135.533203
	C132.771683,141.836655 132.987305,148.174774 132.985184,155.500031
z"/>
<path fill="#1E6FC2" opacity="1.000000" stroke="none"
	d="
M58.767456,25.258232
	C57.795307,23.099308 56.977772,21.284290 55.738750,18.533516
	C62.137482,18.533516 68.100616,17.891964 73.869804,18.676556
	C83.723305,20.016600 90.763512,17.016146 95.553925,8.124074
	C96.436836,6.485194 99.460587,5.174737 101.525566,5.132024
	C114.510139,4.863441 127.503975,5.079797 140.492447,4.933083
	C143.466721,4.899486 145.665939,5.538105 147.009247,8.311890
	C151.235901,17.039408 158.122070,19.939442 167.643951,18.677155
	C173.499802,17.900866 179.542404,18.533487 186.475845,18.533487
	C182.059143,28.216940 178.037277,37.238186 173.747803,46.130344
	C173.309799,47.038330 171.267426,47.599129 169.967758,47.602310
	C137.326080,47.682259 104.683952,47.704792 72.042915,47.538990
	C70.568130,47.531498 68.450394,45.997841 67.745255,44.609615
	C64.583878,38.385700 61.825733,31.956963 58.767456,25.258232
z"/>
<path fill="#92C4F7" opacity="1.000000" stroke="none"
	d="
M117.150055,169.000000
	C117.118454,179.659988 117.281914,189.825180 117.011337,199.978806
	C116.553467,217.160141 105.580307,228.291306 88.362206,228.918533
	C82.249420,229.141220 76.057304,228.842667 69.981544,228.113907
	C51.794117,225.932404 45.695599,213.420395 45.287277,199.343124
	C44.679031,178.373444 45.127022,157.373932 45.047279,136.387405
	C45.032562,132.514145 46.837299,130.969406 50.550381,131.062637
	C54.045975,131.150421 57.550846,131.201736 61.041996,131.048904
	C65.366631,130.859573 66.925293,132.839890 66.901772,137.064285
	C66.794212,156.384918 66.852890,175.706543 66.870125,195.027802
	C66.874313,199.727493 66.538109,205.137863 71.616280,207.236908
	C78.219284,209.966263 85.910660,210.730026 91.629280,206.227737
	C94.546036,203.931381 95.615067,197.980499 95.714600,193.640106
	C96.142166,174.994858 95.891487,156.334229 95.906456,137.679214
	C95.911278,131.673721 96.463264,131.131729 102.447350,131.083328
	C105.611824,131.057739 108.778130,131.141068 111.941002,131.065842
	C115.735107,130.975601 117.259750,132.660202 117.202545,136.520935
	C117.044640,147.178543 117.149162,157.840042 117.150055,169.000000
M91.398552,225.078903
	C102.221786,223.404388 110.049118,218.134308 112.559372,206.900406
	C113.386703,203.197968 113.908089,199.347351 113.936615,195.559738
	C114.075874,177.071457 114.007927,158.581558 113.990005,140.092255
	C113.988449,138.485931 113.817589,136.879791 113.721313,135.202774
	C108.681160,135.202774 104.122787,135.202774 99.033134,135.202774
	C99.033134,137.361481 99.033936,139.153595 99.033020,140.945709
	C99.023499,159.601562 99.019806,178.257416 98.999794,196.913269
	C98.994606,201.751343 98.200974,206.670105 93.807625,209.239624
	C86.123489,213.733871 77.618530,213.355286 69.771355,210.062485
	C63.283131,207.339935 63.230137,200.512650 63.172211,194.519653
	C63.011227,177.864151 63.113514,161.206085 63.112453,144.549042
	C63.111790,134.110199 63.116402,134.183487 52.379574,134.781952
	C49.893368,134.920532 48.793873,135.615952 48.807407,138.258041
	C48.916595,159.578049 48.621090,180.906097 49.132839,202.215256
	C49.346970,211.131516 53.367214,218.805252 62.166119,222.493622
	C71.258652,226.305084 80.821007,227.027924 91.398552,225.078903
z"/>
<path fill="#90C4F8" opacity="1.000000" stroke="none"
	d="
M132.985168,155.000046
	C132.987305,148.174774 132.771683,141.836655 133.143784,135.533203
	C133.237503,133.945374 135.197586,131.153290 136.324966,131.140640
	C150.291611,130.983917 164.373566,130.203918 178.201584,131.682129
	C191.828995,133.138916 199.118805,143.543961 199.794830,159.217209
	C200.309509,171.149704 198.624710,180.480087 186.004562,189.708939
	C190.715225,198.945068 195.457840,208.241333 200.197372,217.539169
	C200.953140,219.021774 201.799454,220.469254 202.420975,222.006897
	C203.631393,225.001480 202.794434,226.999756 199.330933,227.072281
	C194.006729,227.183792 188.661469,227.345612 183.362793,226.963654
	C181.808884,226.851654 179.786911,225.294189 178.996994,223.844696
	C174.699310,215.958405 170.701996,207.907761 166.636246,199.895950
	C163.285767,193.293655 163.307327,193.282715 154.827454,194.817322
	C154.827454,203.114838 154.838135,211.548508 154.824066,219.982162
	C154.812943,226.651016 154.366516,227.091461 147.743866,227.118240
	C144.914200,227.129684 142.065704,226.912216 139.258865,227.165558
	C134.517654,227.593460 132.841919,225.805206 132.890930,220.915726
	C133.109543,199.112366 132.985458,177.305573 132.985168,155.000046
M174.870758,208.647308
	C176.954590,212.817612 178.910355,217.060242 181.199631,221.114532
	C181.893921,222.344147 183.457886,223.780334 184.713379,223.870483
	C189.299347,224.199768 193.923264,224.000717 199.613495,224.000717
	C193.167740,211.390930 187.157394,199.632904 181.281876,188.138641
	C184.035004,186.208084 186.719101,184.774628 188.847748,182.755600
	C198.053467,174.023895 197.012360,162.940994 195.127029,151.990921
	C193.488968,142.476974 187.510727,135.804230 177.898071,135.153076
	C164.224091,134.226822 150.440567,134.917709 136.508453,134.917709
	C136.508453,164.286758 136.508453,193.970337 136.508453,223.630859
	C141.510498,223.630859 146.083893,223.630859 151.207947,223.630859
	C151.207947,212.682617 151.207947,202.102722 151.207947,191.637177
	C164.597931,189.373703 165.383377,189.754730 170.944031,200.842300
	C172.138199,203.223404 173.333633,205.603882 174.870758,208.647308
z"/>
<path fill="#FEFEFF" opacity="1.000000" stroke="none"
	d="
M90.968491,225.123962
	C80.821007,227.027924 71.258652,226.305084 62.166119,222.493622
	C53.367214,218.805252 49.346970,211.131516 49.132839,202.215256
	C48.621090,180.906097 48.916595,159.578049 48.807407,138.258041
	C48.793873,135.615952 49.893368,134.920532 52.379574,134.781952
	C63.116402,134.183487 63.111790,134.110199 63.112453,144.549042
	C63.113514,161.206085 63.011227,177.864151 63.172211,194.519653
	C63.230137,200.512650 63.283131,207.339935 69.771355,210.062485
	C77.618530,213.355286 86.123489,213.733871 93.807625,209.239624
	C98.200974,206.670105 98.994606,201.751343 98.999794,196.913269
	C99.019806,178.257416 99.023499,159.601562 99.033020,140.945709
	C99.033936,139.153595 99.033134,137.361481 99.033134,135.202774
	C104.122787,135.202774 108.681160,135.202774 113.721313,135.202774
	C113.817589,136.879791 113.988449,138.485931 113.990005,140.092255
	C114.007927,158.581558 114.075874,177.071457 113.936615,195.559738
	C113.908089,199.347351 113.386703,203.197968 112.559372,206.900406
	C110.049118,218.134308 102.221786,223.404388 90.968491,225.123962
z"/>
<path fill="#FDFEFF" opacity="1.000000" stroke="none"
	d="
M174.699615,208.315979
	C173.333633,205.603882 172.138199,203.223404 170.944031,200.842300
	C165.383377,189.754730 164.597931,189.373703 151.207947,191.637177
	C151.207947,202.102722 151.207947,212.682617 151.207947,223.630859
	C146.083893,223.630859 141.510498,223.630859 136.508453,223.630859
	C136.508453,193.970337 136.508453,164.286758 136.508453,134.917709
	C150.440567,134.917709 164.224091,134.226822 177.898071,135.153076
	C187.510727,135.804230 193.488968,142.476974 195.127029,151.990921
	C197.012360,162.940994 198.053467,174.023895 188.847748,182.755600
	C186.719101,184.774628 184.035004,186.208084 181.281876,188.138641
	C187.157394,199.632904 193.167740,211.390930 199.613495,224.000717
	C193.923264,224.000717 189.299347,224.199768 184.713379,223.870483
	C183.457886,223.780334 181.893921,222.344147 181.199631,221.114532
	C178.910355,217.060242 176.954590,212.817612 174.699615,208.315979
M151.103363,150.813599
	C151.103363,159.381226 151.103363,167.948868 151.103363,176.851379
	C158.304550,176.851379 164.804230,177.329514 171.173645,176.626770
	C173.895142,176.326523 177.288391,174.143326 178.727020,171.802185
	C181.990036,166.492157 182.372314,160.154282 179.537155,154.641037
	C178.096527,151.839569 174.491562,148.919754 171.473831,148.421127
	C165.489975,147.432465 159.233795,148.030289 153.093231,148.141006
	C152.434402,148.152878 151.795685,149.280060 151.103363,150.813599
z"/>
<path fill="#91C4F7" opacity="1.000000" stroke="none"
	d="
M151.125504,150.351746
	C151.795685,149.280060 152.434402,148.152878 153.093231,148.141006
	C159.233795,148.030289 165.489975,147.432465 171.473831,148.421127
	C174.491562,148.919754 178.096527,151.839569 179.537155,154.641037
	C182.372314,160.154282 181.990036,166.492157 178.727020,171.802185
	C177.288391,174.143326 173.895142,176.326523 171.173645,176.626770
	C164.804230,177.329514 158.304550,176.851379 151.103363,176.851379
	C151.103363,167.948868 151.103363,159.381226 151.125504,150.351746
M155.922424,151.344147
	C155.583252,158.010162 155.192764,164.674667 154.994888,171.344879
	C154.977631,171.926468 156.223251,173.060226 156.889374,173.065643
	C162.017853,173.107407 167.180450,173.221909 172.258163,172.651917
	C173.788696,172.480103 176.086243,170.365067 176.298050,168.890945
	C176.898605,164.711548 177.068542,160.331345 176.428146,156.181442
	C176.174561,154.538269 173.486725,152.347260 171.643539,152.052048
	C166.784683,151.273834 161.781372,151.397705 155.922424,151.344147
z"/>
<path fill="#1E6FC2" opacity="1.000000" stroke="none"
	d="
M156.378998,151.253250
	C161.781372,151.397705 166.784683,151.273834 171.643539,152.052048
	C173.486725,152.347260 176.174561,154.538269 176.428146,156.181442
	C177.068542,160.331345 176.898605,164.711548 176.298050,168.890945
	C176.086243,170.365067 173.788696,172.480103 172.258163,172.651917
	C167.180450,173.221909 162.017853,173.107407 156.889374,173.065643
	C156.223251,173.060226 154.977631,171.926468 154.994888,171.344879
	C155.192764,164.674667 155.583252,158.010162 156.378998,151.253250
z"/>
</svg>